<svg id="Layer_1" data-name="Layer 1" xmlns="http://www.w3.org/2000/svg" viewBox="0 0 137.85 43.22"><defs><style>.cls-1{fill:#f89936;}.cls-2{fill:#fff;}</style></defs><path class="cls-1" d="M12,14.09,8.18,7.38H3.9l8.41,14.15L3.55,36.06H7.79l3.47-6.31c1.48-2.51,2.28-4,3.1-5.7h.08V18.61C13.71,17.19,13,15.81,12,14.09Z"/><path class="cls-2" d="M38.46,34.77a26.61,26.61,0,0,1-8.81,1.58c-4.34,0-7.91-1.11-10.72-3.79a14.74,14.74,0,0,1-4-10.68c0-8.55,5.91-14.81,15.53-14.81a17.68,17.68,0,0,1,7.15,1.32l-.9,3a14.86,14.86,0,0,0-6.34-1.23c-7,0-11.53,4.34-11.53,11.53s4.39,11.57,11.07,11.57a12.18,12.18,0,0,0,4.93-.76V24H29V21h9.45Z"/><path class="cls-2" d="M52,28.18c-.69-3-2-5-4.22-5.78v-.13A7.52,7.52,0,0,0,53.13,15a7.2,7.2,0,0,0-2.24-5.47c-1.78-1.61-4.34-2.32-8.3-2.32-1,0-2.11,0-3.12.11v3A16.67,16.67,0,0,1,42.85,10c3.91,0,6.58,1.66,6.58,5.36,0,3.29-2.5,5.46-6.45,5.46H39.47v2.8h3.2c3.36.13,4.89,1.62,5.75,5.58a37,37,0,0,0,1.91,6.86h3.84C53.56,34.94,52.9,32.19,52,28.18Z"/><path class="cls-2" d="M73.92,19.64c-1.24.12-1.36.19-1.36,1.42v5.88c0,1.23.13,1.28,1.36,1.41v.41h-4v-.41c1.25-.15,1.37-.18,1.37-1.41V24H66.14v2.93c0,1.22.12,1.26,1.35,1.41v.41h-4v-.41c1.22-.13,1.35-.18,1.35-1.41V21.06c0-1.23-.13-1.3-1.35-1.42v-.41h4v.41c-1.2.1-1.35.21-1.35,1.42v2.33h5.13V21.06c0-1.21-.17-1.32-1.37-1.42v-.41h4Z"/><path class="cls-2" d="M79.74,19a4.78,4.78,0,0,1,4.86,4.84,5,5,0,1,1-9.93.22A4.94,4.94,0,0,1,79.74,19Zm-.3.55c-1.68,0-3.21,1.38-3.21,4.12s1.53,4.73,3.66,4.73c1.81,0,3.18-1.32,3.18-4.15C83.07,21.19,81.4,19.57,79.44,19.57Z"/><path class="cls-2" d="M92.9,26.33c-.09.45-.54,2-.69,2.43h-7v-.41c1.36-.13,1.48-.21,1.48-1.45V21.08c0-1.25-.15-1.32-1.35-1.44v-.41h4v.41c-1.2.12-1.36.18-1.36,1.44v6c0,.89.12,1.09,1,1.11h1.19c.76,0,1-.08,1.33-.45a5,5,0,0,0,.92-1.51Z"/><path class="cls-2" d="M97.38,19.23c2.12,0,3.45.41,4.38,1.27A4.21,4.21,0,0,1,103,23.64a4.76,4.76,0,0,1-1.88,4,7.22,7.22,0,0,1-4.44,1.16H93.21v-.41c1.29-.12,1.35-.22,1.35-1.42V21.08c0-1.26-.18-1.32-1.35-1.44v-.41Zm-1.51,7.58c0,1.1.48,1.41,1.6,1.41,2.7,0,4.08-1.81,4.08-4.37a3.77,3.77,0,0,0-1.74-3.52,4.78,4.78,0,0,0-2.56-.59,2.14,2.14,0,0,0-1.19.21c-.13.09-.19.25-.19.82Z"/><path class="cls-2" d="M103.81,28.76v-.41c1.23-.13,1.35-.19,1.35-1.44V21.09c0-1.26-.12-1.32-1.35-1.45v-.41h4v.41c-1.24.13-1.36.19-1.36,1.45v5.82c0,1.26.12,1.31,1.36,1.44v.41Z"/><path class="cls-2" d="M119,19.64c-1,.1-1.27.25-1.32.92,0,.47,0,1.09,0,2.45v5.88h-.57l-6.42-7.67v3.67c0,1.32,0,2,.07,2.4,0,.75.41,1,1.49,1.06v.41h-3.65v-.41c.93-.07,1.29-.29,1.35-1a24.16,24.16,0,0,0,.08-2.46V21.14a1.26,1.26,0,0,0-.3-1c-.29-.37-.6-.46-1.34-.53v-.41h2.25L117,26.61V23c0-1.36,0-2-.07-2.43,0-.66-.39-.87-1.59-.94v-.41H119Z"/><path class="cls-2" d="M129.3,24.76c-.93.12-1,.2-1,1.07v1.23a8.32,8.32,0,0,0,.09,1.39A15.27,15.27,0,0,1,125,29c-3.41,0-5.48-2.07-5.48-5,0-3.1,2.58-4.95,5.58-4.95a15.8,15.8,0,0,1,3.12.37c0,.54.11,1.44.23,2.36l-.45.09c-.36-1.25-.8-1.77-1.74-2.08a5.1,5.1,0,0,0-1.4-.19c-2.29,0-3.78,1.54-3.78,4.22,0,2.33,1.23,4.65,4.14,4.65a3,3,0,0,0,1.28-.25.88.88,0,0,0,.51-.94v-1.2c0-1.07-.12-1.19-1.56-1.29v-.43h3.85Z"/><path class="cls-2" d="M135.18,21.46c-.26-1-.68-1.92-2.09-1.92a1.47,1.47,0,0,0-1.57,1.6c0,1,.66,1.52,1.9,2.15,1.8.91,2.58,1.59,2.58,3S134.64,29,132.7,29a6.43,6.43,0,0,1-2.29-.48,20.7,20.7,0,0,1-.41-2.2l.47-.12A2.72,2.72,0,0,0,133,28.44a1.63,1.63,0,0,0,1.74-1.69c0-1.13-.62-1.58-1.94-2.29-1.57-.83-2.46-1.54-2.46-2.9S131.44,19,133.42,19a9.63,9.63,0,0,1,2,.28c.06.53.12,1.12.24,2.07Z"/><rect class="cls-2" x="58.45" y="1.84" width="0.93" height="39.53"/></svg>