<svg xmlns="http://www.w3.org/2000/svg" viewBox="0 0 750 635"><path fill="#ffffff" fill-rule="evenodd" d="M316,550L310,553L316,559L308,560L313,562L318,559L312,553L314,551L320,553ZM297,550L293,553L292,558L294,561L301,561L301,559L294,558L304,556L302,551ZM295,553L299,551L302,554L296,555ZM331,547L326,551L326,561L331,561L328,559L329,553L332,552ZM424,545L416,548L421,546L424,548L419,553L423,555L420,560L413,558L417,562L422,561L425,557L423,553L426,547ZM411,546L405,545L400,549L399,560L406,561L410,558ZM407,546L410,548L410,554L402,560L401,551ZM393,545L383,550L382,559L384,561L390,561L395,556L396,548ZM392,547L394,553L390,559L386,560L384,552L388,547ZM379,546L370,547L369,549L377,547L378,550L366,561L377,561L370,559L380,550ZM193,518L196,523L518,523L521,520L519,517ZM650,457L650,461L654,462L665,480L665,493L661,494L661,498L674,498L674,494L670,493L670,478L680,463L685,461L685,457L672,457L672,461L676,462L668,474L660,463L663,457ZM606,457L606,461L610,462L610,493L606,494L606,498L619,498L619,494L615,493L616,479L626,481L631,498L639,498L629,478L636,469L634,461L628,457ZM615,462L627,462L630,465L630,471L624,475L616,475ZM565,457L565,461L569,462L569,493L565,494L565,498L594,498L594,487L589,487L588,494L574,493L574,480L586,479L586,475L574,474L574,462L588,461L589,468L594,468L594,457ZM514,457L514,461L518,462L518,493L514,494L514,498L527,498L527,494L523,493L524,466L542,498L549,498L549,462L553,461L553,457L540,457L540,461L544,462L543,489L526,458ZM486,457L486,461L490,462L490,493L486,494L486,498L499,498L499,494L495,493L495,462L499,461L499,457ZM405,457L405,461L410,464L421,498L429,498L440,464L451,498L459,498L470,464L475,461L475,457L462,457L462,461L466,462L455,492L444,457L436,457L425,493L415,464L418,457ZM292,457L292,461L296,462L296,493L292,494L292,498L321,498L321,487L316,487L315,494L301,493L301,480L313,479L313,475L301,474L301,462L315,461L316,468L321,468L321,457ZM265,457L265,461L269,462L269,493L265,494L265,498L278,498L278,494L274,493L274,462L278,461L278,457ZM223,457L223,461L227,462L227,493L223,494L223,498L254,498L254,486L249,486L247,494L232,493L232,462L236,461L236,457ZM176,457L176,461L180,462L180,493L176,494L176,498L189,498L189,494L185,493L186,479L196,481L201,498L209,498L199,478L206,469L204,461L198,457ZM185,462L197,462L200,465L200,471L194,475L186,475ZM140,457L128,491L123,494L123,498L136,498L136,494L132,493L136,484L151,484L155,493L152,494L152,498L165,498L165,494L160,493L148,457ZM143,462L149,480L137,479ZM70,457L70,461L74,462L74,493L70,494L70,498L83,498L83,494L79,493L80,478L102,478L103,493L99,494L99,498L112,498L112,494L108,493L108,462L112,461L112,457L99,457L99,461L103,462L102,474L80,474L79,462L83,461L83,457ZM367,456L357,463L357,472L361,477L376,482L379,489L374,494L366,494L361,486L355,486L355,490L365,499L375,499L383,493L384,483L380,478L365,473L362,465L367,461L373,461L378,468L384,468L385,464L376,457ZM337,456L333,471L335,472L343,458ZM35,456L23,465L20,472L20,483L30,497L44,499L51,496L57,487L53,485L44,494L33,493L25,482L26,470L36,461L44,461L51,467L57,467L57,463L44,456ZM173,166L173,171L183,187L190,192L245,160L247,161L230,287L230,348L235,371L244,389L260,402L277,407L307,406L342,395L359,406L389,408L412,403L440,391L458,378L481,355L501,328L524,282L540,230L589,215L607,202L614,189L613,181L608,175L597,173L550,196L548,194L548,154L544,139L536,126L524,114L508,105L491,101L473,102L446,115L433,131L427,150L428,171L434,191L443,204L462,219L479,226L507,230L508,235L478,306L457,336L439,354L419,368L401,376L381,379L375,378L372,373L388,356L400,338L417,300L424,269L424,245L418,224L407,210L389,201L369,200L353,206L341,218L331,236L323,265L320,298L327,362L311,370L282,372L272,365L264,345L263,305L282,141L285,135L326,109L314,84L309,82ZM380,237L388,243L391,251L390,275L384,296L373,320L357,338L352,321L356,268L366,242L370,238ZM270,145L271,155L266,164L273,174L272,180L267,185L271,197L262,206L268,213L268,219L260,226L265,233L265,238L254,247L253,242L257,235L249,229L248,224L254,216L249,202L256,195L251,188L251,181L257,175L253,168L253,161L263,149ZM469,141L483,135L497,135L513,147L519,168L517,195L514,200L482,195L465,182L459,169L459,157L463,147Z"/></svg>